<?xml version="1.0" encoding="utf-8"?>
<!-- Generator: Adobe Illustrator 27.2.0, SVG Export Plug-In . SVG Version: 6.00 Build 0)  -->
<svg version="1.1" id="Layer_1" xmlns="http://www.w3.org/2000/svg" xmlns:xlink="http://www.w3.org/1999/xlink" x="0px" y="0px"
	 viewBox="0 0 111 48" style="enable-background:new 0 0 111 48;" xml:space="preserve">
<style type="text/css">
	.st0{fill:url(#SVGID_1_);}
	.st1{fill:url(#SVGID_00000034057338738103793990000015827094181430304177_);}
	.st2{fill:url(#SVGID_00000005247350695539603720000012543510532510554251_);}
	.st3{fill:url(#SVGID_00000078734124256757973890000009057887738091085197_);}
	.st4{fill:url(#SVGID_00000059299309720172355360000009439758375535623326_);}
	.st5{fill:url(#SVGID_00000018920350170970036380000015785982508883736986_);}
	.st6{fill:url(#SVGID_00000047748920102356025670000015964704841931387543_);}
	.st7{fill:#FFFFFF;}
</style>
<linearGradient id="SVGID_1_" gradientUnits="userSpaceOnUse" x1="-1.2927" y1="37.5" x2="111.6219" y2="37.5" gradientTransform="matrix(1 0 0 -1 0 50)">
	<stop  offset="0.1831" style="stop-color:#FF56F6"/>
	<stop  offset="0.4326" style="stop-color:#B936EE"/>
	<stop  offset="0.8544" style="stop-color:#3BACE2"/>
	<stop  offset="1" style="stop-color:#406AFF"/>
</linearGradient>
<path class="st0" d="M11.6,4.6c1.5,0,6.8,0.2,6.8,5.8c0,2.9-1.4,4.5-2.9,5.3l3.2,4.7h-6.1L10,16.7c-1.5,0-3.9,0-4.8,0v3.7H0V4.6
	H11.6z M13.1,10.6c0-1.3-1.3-1.4-2-1.4s-5.8,0-5.8,0V12c0,0,5.1,0,5.9,0C11.9,12.1,13.1,11.9,13.1,10.6z"/>
<linearGradient id="SVGID_00000088116739664847106950000000393667989685497216_" gradientUnits="userSpaceOnUse" x1="-1.2896" y1="37.5" x2="111.625" y2="37.5" gradientTransform="matrix(1 0 0 -1 0 50)">
	<stop  offset="0.1831" style="stop-color:#FF56F6"/>
	<stop  offset="0.4326" style="stop-color:#B936EE"/>
	<stop  offset="0.8544" style="stop-color:#3BACE2"/>
	<stop  offset="1" style="stop-color:#406AFF"/>
</linearGradient>
<path style="fill:url(#SVGID_00000088116739664847106950000000393667989685497216_);" d="M19.6,4.6h5.2v15.8h-5.2
	C19.6,20.4,19.6,4.6,19.6,4.6z"/>
<linearGradient id="SVGID_00000145050709853233588280000004851701457323457413_" gradientUnits="userSpaceOnUse" x1="-1.2927" y1="37.5" x2="111.6219" y2="37.5" gradientTransform="matrix(1 0 0 -1 0 50)">
	<stop  offset="0.1831" style="stop-color:#FF56F6"/>
	<stop  offset="0.4326" style="stop-color:#B936EE"/>
	<stop  offset="0.8544" style="stop-color:#3BACE2"/>
	<stop  offset="1" style="stop-color:#406AFF"/>
</linearGradient>
<path style="fill:url(#SVGID_00000145050709853233588280000004851701457323457413_);" d="M43.7,4.6v4.8H32V11h9.2v4.6H32v4.8h-5.2
	V4.6H43.7z"/>
<linearGradient id="SVGID_00000129889326724904624690000010063595707975829660_" gradientUnits="userSpaceOnUse" x1="-1.2927" y1="37.5" x2="111.6219" y2="37.5" gradientTransform="matrix(1 0 0 -1 0 50)">
	<stop  offset="0.1831" style="stop-color:#FF56F6"/>
	<stop  offset="0.4326" style="stop-color:#B936EE"/>
	<stop  offset="0.8544" style="stop-color:#3BACE2"/>
	<stop  offset="1" style="stop-color:#406AFF"/>
</linearGradient>
<path style="fill:url(#SVGID_00000129889326724904624690000010063595707975829660_);" d="M63.3,20.4h-6.1L56,17.8h-7.8L47,20.4h-6
	l7.1-15.8h8.2L63.3,20.4z M54.2,13.2l-2-4.1l-2,4.1C50.2,13.2,54.2,13.2,54.2,13.2z"/>
<linearGradient id="SVGID_00000109016306158861354060000013122406390738431637_" gradientUnits="userSpaceOnUse" x1="-1.2927" y1="37.4" x2="111.6219" y2="37.4" gradientTransform="matrix(1 0 0 -1 0 50)">
	<stop  offset="0.1831" style="stop-color:#FF56F6"/>
	<stop  offset="0.4326" style="stop-color:#B936EE"/>
	<stop  offset="0.8544" style="stop-color:#3BACE2"/>
	<stop  offset="1" style="stop-color:#406AFF"/>
</linearGradient>
<path style="fill:url(#SVGID_00000109016306158861354060000013122406390738431637_);" d="M63.4,20.4V4.7h10.8c4.6,0,9,1.1,9,7.9
	c0,6.1-4.9,7.9-8.9,7.9H63.4V20.4z M77.7,12.6c0-2-1-3.6-3.8-3.6h-5.3v7.1h5.3C76.4,16.1,77.7,14.5,77.7,12.6z"/>
<linearGradient id="SVGID_00000170238164035846178120000002243776666643008932_" gradientUnits="userSpaceOnUse" x1="-1.2927" y1="45.15" x2="111.6219" y2="45.15" gradientTransform="matrix(1 0 0 -1 0 50)">
	<stop  offset="0.1831" style="stop-color:#FF56F6"/>
	<stop  offset="0.4326" style="stop-color:#B936EE"/>
	<stop  offset="0.8544" style="stop-color:#3BACE2"/>
	<stop  offset="1" style="stop-color:#406AFF"/>
</linearGradient>
<path style="fill:url(#SVGID_00000170238164035846178120000002243776666643008932_);" d="M89.9,1.8v3.4l-4.8,2.7L84.4,7l1.1-1.8V1.8
	H89.9z"/>
<linearGradient id="SVGID_00000053526136630621760580000013357508473398262166_" gradientUnits="userSpaceOnUse" x1="-1.2927" y1="37.4" x2="111.6219" y2="37.4" gradientTransform="matrix(1 0 0 -1 0 50)">
	<stop  offset="0.1831" style="stop-color:#FF56F6"/>
	<stop  offset="0.4326" style="stop-color:#B936EE"/>
	<stop  offset="0.8544" style="stop-color:#3BACE2"/>
	<stop  offset="1" style="stop-color:#406AFF"/>
</linearGradient>
<path style="fill:url(#SVGID_00000053526136630621760580000013357508473398262166_);" d="M110.4,10.4c0,0-4.7,0-5.6,0
	c0-0.8-0.3-1.3-4.5-1.3c-4,0-4.3,0.2-4.3,0.8c0,0.4,0.3,0.4,4.3,0.8c8.8,0.7,10.6,0.8,10.6,4.9s-1.5,4.9-10.6,4.9
	c-8.3,0-9.6-0.8-9.6-5.4c0,0,4.8,0,5.4,0c0,0.9,0.4,1.2,4.4,1.2c3.8,0,4.2,0,4.2-0.7c0-0.5-0.5-0.4-4.6-0.8
	c-6.4-0.5-9.7-0.8-9.7-4.9c0-4.7,2.7-5.2,9.7-5.2C108.5,4.7,110.4,5.8,110.4,10.4z"/>
<path class="st7" d="M29.4,46L29.4,46l-6.1,0.1V46l-4.5-10l-4.4,10.2H8.2L0.1,27h6.7l4.5,10.8L15.7,27h6l4.5,10.7L30.7,27h6.7
	L29.4,46z"/>
<path class="st7" d="M62.2,36.5c0,7.4-4.2,9.7-13.1,9.7c-9.1,0-12.8-3.3-12.8-10.1c0-6.4,4.1-9.4,12.7-9.4
	C57.2,26.7,62.2,28.9,62.2,36.5z M55.2,36.5c0-3.2-2.5-4.7-6.1-4.7c-4,0-5.9,1.8-5.9,4.7c0,2.8,1.9,4.7,5.9,4.7
	C52.9,41.2,55.2,39.7,55.2,36.5z"/>
<path class="st7" d="M77.3,27c1.8,0,8.2,0.2,8.2,7c0,3.5-1.6,5.4-3.5,6.4l3.9,5.6h-7.3l-3.2-4.5c-1.8,0-4.7,0-5.7,0V46h-6.3V27H77.3
	z M79.1,34.3c0-1.6-1.6-1.6-2.5-1.6c-0.8,0-7,0-7,0V36c0,0,6.2,0,7.1,0C77.7,36,79.1,35.8,79.1,34.3z"/>
<path class="st7" d="M99.8,36.7l10.4,9.5h-8.6l-5.9-5.7l-2,1.9v3.8h-6.3V27h6.3v7.6l7.9-7.6h8.6L99.8,36.7z"/>
</svg>
